<mxfile host="app.diagrams.net" modified="2023-08-29T14:16:02.478Z" agent="Mozilla/5.0 (Windows NT 10.0; Win64; x64) AppleWebKit/537.36 (KHTML, like Gecko) Chrome/115.0.0.0 Safari/537.36" version="21.6.1" etag="_UeB4E6RHcuq_gZXUoSY" type="github">
  <diagram name="PÃ¡gina-1" id="eWPHOr3gbkDtI7humXTg">
    <mxGraphModel>
      <root>
        <mxCell id="0" />
        <mxCell id="1" parent="0" />
      </root>
    </mxGraphModel>
  </diagram>
</mxfile>
